<?xml version="1.0" encoding="utf-8"?>
<!-- Generator: Adobe Illustrator 25.0.0, SVG Export Plug-In . SVG Version: 6.00 Build 0)  -->
<svg version="1.1" xmlns="http://www.w3.org/2000/svg" xmlns:xlink="http://www.w3.org/1999/xlink" x="0px" y="0px"
	 viewBox="0 0 254.25 500" style="enable-background:new 0 0 254.25 500;" xml:space="preserve">
<style type="text/css">
	.st0{display:none;}
	.st1{fill:#FFFFFF;}
</style>
<g id="BACKGROUND" class="st0">
</g>
<g id="OBJECTS">
	<path d="M7.84,152.33c0-3.69,0-7.22,0-10.85c-2.19-0.42-2.71-1.89-2.7-3.93c0.07-8.48,0.04-16.96,0.01-25.44
		c-0.01-1.66,0.3-2.99,2.11-3.57c0.28-0.09,0.59-0.65,0.59-0.99c0.04-5.61,0.03-11.22,0.03-16.79c-2.39-1-2.71-1.49-2.71-4.08
		c0-3.26,0.03-6.51-0.01-9.77c-0.02-1.62,0.4-2.81,2.07-3.45c0.37-0.14,0.62-1.06,0.63-1.62c0.04-10.05,0.01-20.1,0.03-30.16
		C7.93,25.26,18.51,11.69,34.45,7.78c2.32-0.57,4.76-0.86,7.14-0.86c57.22-0.05,114.44-0.04,171.67-0.04
		c16.09,0,30.71,12.49,33.16,28.4c0.37,2.37,0.61,4.79,0.61,7.19c0.03,138.14,0.03,276.28,0.02,414.42
		c0,16.08-9.33,29.37-24.11,33.95c-3.11,0.96-6.47,1.54-9.72,1.54c-57.22,0.09-114.44,0.07-171.67,0.06
		c-15.84,0-30.45-12.37-32.99-28c-0.42-2.59-0.65-5.24-0.65-7.86C7.88,366.86,7.88,277.12,7.9,187.39c0-1.17,0.02-2.05-1.39-2.59
		c-0.64-0.24-1.27-1.5-1.28-2.31c-0.09-9.1-0.07-18.19-0.05-27.29C5.19,153.52,6.21,152.67,7.84,152.33z M188.61,18.14
		c-0.92,3.41-1.49,6.7-2.69,9.74c-1.87,4.72-5.44,7.08-10.73,7.07c-31.05-0.07-62.11-0.07-93.16,0c-4.77,0.01-8.19-2-10.1-6.18
		c-1.34-2.92-2.15-6.11-2.96-9.24c-0.31-1.21-0.78-1.53-1.9-1.54c-3.87-0.03-7.76-0.33-11.62-0.17c-4.92,0.21-9.88,0.45-14.72,1.25
		c-10.91,1.8-19.06,9.86-19.34,23.52c-0.14,7.07,0.04,14.15,0.01,21.22c-0.11,21.76-0.37,43.53-0.36,65.29
		c0.05,72.92,0.22,145.85,0.31,218.77c0.04,35.21,0.01,70.42,0.02,105.62c0,0.83,0.04,1.69,0.24,2.49
		c2.89,11.83,12.2,19.13,24.36,19.13c54.98,0,109.95,0,164.93,0c1.12,0,2.25-0.04,3.37-0.12c10.67-0.78,19.34-10.03,19.38-20.72
		c0.12-37.99,0.35-75.98,0.33-113.98c-0.04-77.52-0.22-155.05-0.34-232.57c0-1.68,0-3.37,0-5.05c-0.01-20.83-0.01-41.67-0.04-62.5
		c-0.01-10.75-4.76-17.63-14.41-20.34c-3.69-1.04-7.59-1.66-11.42-1.84c-5.99-0.28-12.01-0.03-18.02,0
		C189.24,18.02,188.75,18.12,188.61,18.14z"/>
	<path class="st1" d="M131.3,54.32c-0.13,1.26-0.18,2.52-0.42,3.76c-0.06,0.34-0.66,0.57-1.02,0.85c-0.22-0.4-0.69-0.88-0.61-1.2
		c0.33-1.23,0.84-2.42,1.28-3.62C130.79,54.17,131.05,54.24,131.3,54.32z"/>
</g>
<g id="DESIGNED_BY_FREEPIK">
</g>
</svg>
