<?xml version="1.0" encoding="utf-8"?>
<!-- Generator: Adobe Illustrator 25.0.0, SVG Export Plug-In . SVG Version: 6.00 Build 0)  -->
<svg version="1.1" id="Camada_1" xmlns="http://www.w3.org/2000/svg" xmlns:xlink="http://www.w3.org/1999/xlink" x="0px" y="0px"
	 viewBox="0 0 32 32" style="enable-background:new 0 0 32 32;" xml:space="preserve">
<style type="text/css">
	.st0{clip-path:url(#SVGID_2_);fill-rule:evenodd;clip-rule:evenodd;fill:#FFFFFF;}
	.st1{clip-path:url(#SVGID_2_);fill-rule:evenodd;clip-rule:evenodd;fill:#FEEF00;}
	.st2{clip-path:url(#SVGID_2_);fill-rule:evenodd;clip-rule:evenodd;fill:#E0D201;}
	.st3{clip-path:url(#SVGID_2_);fill-rule:evenodd;clip-rule:evenodd;fill:#FE0000;}
	.st4{clip-path:url(#SVGID_2_);fill-rule:evenodd;clip-rule:evenodd;fill:#BD0404;}
</style>
<g>
	<g>
		<defs>
			<rect id="SVGID_1_" x="-3.3" y="-2.97" width="37.94" height="37.94"/>
		</defs>
		<clipPath id="SVGID_2_">
			<use xlink:href="#SVGID_1_"  style="overflow:visible;"/>
		</clipPath>
		<path class="st0" d="M19.71,9.73c-0.01,0.08,0.02,0.12,0.02,0.24c0.04,0.07,0.11,0.56,0.13,0.69c0.04,0.21,0.07,0.45,0.11,0.67
			c0.08,0.44,0.15,0.92,0.22,1.35l0.67,4.07c0.04,0.26,0.1,0.4,0.04,0.67c-0.09,0.42-0.67,3.04-0.69,3.25
			c0.18,0.04,0.44,0.09,0.6,0.14c0.14,0.02,0.28,0.06,0.41,0.09c0.1,0.02,0.35,0.06,0.42,0.1c0.09,0,0.12-0.01,0.18,0.04
			c0.22,0,0.6,0.13,0.74,0.14l0.22-1.03l0.06-0.25c-0.01-0.03-0.02-0.03,0.01-0.03c0-0.11,0.04-0.19,0.05-0.3
			c0.01-0.05,0.02-0.1,0.03-0.14c0.02-0.06,0.03-0.09,0.04-0.14c0.03-0.33,0.15-0.7,0.21-1.04c0.11-0.6,0.06-0.43,0.36-0.88
			c0.13-0.2,0.9-1.4,0.99-1.47l0.39-0.59c0.04-0.05,0.05-0.1,0.09-0.14l0.89-1.33c0.06-0.09,0.12-0.21,0.2-0.28
			c0.02-0.08,0.03-0.09,0.07-0.14l1.25-1.87l0.03-0.03c0.04-0.13,0.2-0.26,0.21-0.37l-1.94-0.41c-0.2-0.05-0.43-0.1-0.64-0.14
			l-0.55,0.98c-0.04,0.08-0.07,0.13-0.11,0.2c-0.04,0.07-0.07,0.12-0.11,0.19c-0.04,0.09-0.05,0.12-0.11,0.19
			c-0.02,0.08-0.05,0.15-0.11,0.18l-0.83,1.5c-0.03,0.12-0.21,0.41-0.27,0.53c-0.04,0.09-0.24,0.48-0.29,0.5l-0.19-2.19
			c0-0.09-0.03-0.21-0.03-0.31c-0.01-0.14-0.04-0.23-0.04-0.33c-0.02-0.24-0.04-0.46-0.04-0.7c-0.03-0.07-0.03-0.16-0.04-0.25
			c0.01-0.09-0.02-0.22-0.03-0.35c0-0.09-0.02-0.3-0.04-0.38c-0.07-0.45,0.07-0.34-0.37-0.43c-0.1-0.03-0.22-0.06-0.33-0.07l-1-0.22
			c-0.11-0.01-0.8-0.15-0.86-0.18c-0.01,0-0.04-0.01-0.04-0.01c-0.04,0-0.01-0.01-0.04,0.01L19.71,9.73z"/>
		<path class="st1" d="M4.8,11.44v5.3c0,0.71,0.14,1.26,0.48,1.64l0.04,0.03c0.31,0.34,0.74,0.52,1.19,0.6
			c0.08,0.01,0.12,0.04,0.23,0.04c0.57,0,0.85,0.04,1.37-0.07c0.45-0.11,0.81-0.33,1.09-0.67c0.27-0.33,0.41-0.93,0.41-1.37v-5.48
			c0-0.04-0.02-0.06-0.06-0.06H7.93v5.17c0,0.79-0.07,1.07-0.78,1.07c-0.7,0-0.64-0.55-0.64-1.09v-4.79c0-0.07,0-0.13,0-0.2
			c0-0.09,0.02-0.17-0.06-0.17H4.86C4.82,11.38,4.8,11.4,4.8,11.44"/>
		<path class="st1" d="M14.51,11.43h1.41c0.07,0.11,0.17,0.38,0.23,0.51l0.65,1.54c-0.3-0.04-2.06-0.66-2.29-0.68v6.06
			c0.02,0.1,0.05,0.06,0.29,0.06l1.24,0.01c0.11,0,0.11,0.01,0.12-0.07v-2.15c0-0.33,0.04-1.16-0.02-1.41
			c0.07,0.05,0.38,0.8,0.41,0.89l1.22,2.73h1.12c0.21,0.01,0.23,0.05,0.23-0.16c-0.01-0.51,0-1.03,0-1.53c0-1.02,0-2.03,0-3.04
			c-0.1,0-0.67-0.19-0.81-0.24c-0.12-0.04-0.26-0.09-0.39-0.12c-0.14-0.04-0.28-0.1-0.44-0.11v1.28l-1.56-3.63h-1.41L14.51,11.43z"
			/>
		<path class="st1" d="M10.43,11.42c0.22,0.08,2.9-0.03,3.4,0.03v1.14l-1.7-0.51c-0.13-0.04-1.59-0.51-1.7-0.5
			c0,2.39-0.02,4.87-0.01,7.25c0.01,0.18,0.04,0.11,0.55,0.11h2.65c0.3,0.01,0.25,0.05,0.25-0.57c0-1.08,0.11-0.92-0.41-0.92h-1.35
			v-1.58c0.03-0.1,0.08-0.06,0.33-0.06h1.21c0.21,0.01,0.14-0.05,0.14-0.64v-0.6c0-0.11,0.01-0.11-0.08-0.12h-1.6v-1.5
			c0-0.15,0.03-0.12,0.18-0.12l1.51,0.01c0.1-0.03,0.06-0.13,0.06-0.26c0-0.32,0.04-0.94-0.02-1.2h-3.23
			C10.51,11.38,10.48,11.36,10.43,11.42"/>
		<path class="st2" d="M27.46,11.52c0,0.04,0.01,0.03-0.03,0.03l-1.25,1.87c0.1,0.01,0.82,0.48,1.01,0.57l0.4,0.26
			c0.1,0.05,0.13,0.11,0.21,0.11c-0.07-0.1,0.14-0.76,0.19-0.87c0.04-0.07,0.05-0.11,0.1-0.18c0.11-0.18,0.21-0.34,0.4-0.44
			c0.62-0.32,1.12,0.22,1.3,0.77c0.17,0.52,0.2,0.92,0.2,1.47c0,0.68-0.04,1.08-0.22,1.72c-0.04,0.13-0.16,0.38-0.25,0.48
			c-0.04,0.05-0.04,0.02-0.05,0.08c0.38,0.1,0.81,0.25,1.2,0.36c0.11,0.04,0.28,0.1,0.4,0.12l-0.01,0.04
			c0.11-0.07,0.24-0.36,0.29-0.48c0.25-0.55,0.38-1.29,0.41-2v-0.11V14.8V14.7l-0.06-0.56c-0.04-0.21-0.07-0.43-0.12-0.62
			c-0.14-0.62-0.37-1.02-0.76-1.52c-0.16-0.21-0.63-0.55-0.88-0.63c-0.58-0.21-0.68-0.18-1.33-0.18c-0.22,0-0.47,0.06-0.64,0.12
			C27.76,11.36,27.51,11.51,27.46,11.52"/>
		<path class="st1" d="M0.76,18.93h3.41c0.05,0,0.06-0.01,0.06-0.06v-1.43H2.43v-6c0-0.04-0.02-0.06-0.07-0.06H0.76V18.93z"/>
		<path class="st3" d="M19.73,14.15v1.14v6.27c0.14,0,0.07,0,0.11-0.04c0-0.01,0.01-0.01,0.01-0.02l0.03-0.04
			c0.03-0.02,0.02-0.01,0.04-0.04l0.55-0.37c0.03-0.06,0.07-0.1,0.15-0.11c0.05-0.08,0.15-0.09,0.2-0.17
			c-0.16-0.05-0.41-0.1-0.6-0.14c0.02-0.21,0.6-2.82,0.69-3.25c0.05-0.27,0-0.4-0.04-0.67l-0.67-4.07
			c-0.07-0.43-0.14-0.91-0.22-1.35c-0.04-0.22-0.07-0.46-0.11-0.67c-0.02-0.12-0.09-0.62-0.13-0.69V14.15z"/>
		<path class="st1" d="M26.72,16.57c-0.07,0.03-0.09,0.05-0.13,0.1c-0.04,0.04-0.08,0.08-0.11,0.11c-0.06,0.06-0.2,0.15-0.23,0.23
			c0.05,0.11,0.09,0.24,0.13,0.35c0.33,0.78,0.98,1.48,1.87,1.64c0.39,0.07,0.52,0.04,0.95,0.04c0.4,0,0.84-0.17,1.14-0.36
			c0.06-0.04,0.1-0.06,0.15-0.11c0.06-0.04,0.08-0.07,0.13-0.11c0.12-0.1,0.44-0.42,0.46-0.54l0.01-0.04
			c-0.12-0.03-0.29-0.09-0.4-0.12c-0.39-0.11-0.82-0.26-1.2-0.36c-0.18,0.18-0.37,0.34-0.7,0.29c-0.78-0.12-1.02-1.35-1.02-2.02
			c-0.13,0.16,0.18,1.21,0.18,1.24C27.73,16.9,26.92,16.54,26.72,16.57"/>
		<path class="st2" d="M17.49,13.73c0.16,0.01,0.3,0.07,0.44,0.11c0.12,0.04,0.26,0.09,0.39,0.12c0.14,0.04,0.71,0.24,0.81,0.24
			v-2.54c0-0.33,0.11-0.27-0.58-0.27c-0.28,0-0.57,0-0.85,0c-0.26-0.01-0.2-0.09-0.2,0.64C17.49,12.59,17.49,13.16,17.49,13.73"/>
		<path class="st3" d="M22.98,19.28c0.11-0.04,0.4-0.26,0.51-0.34l0.25-0.17c0.04-0.03,0.04-0.02,0.07-0.04l0.69-0.48
			c0.09-0.05,0.46-0.33,0.53-0.34c0.04-0.05,0.02-0.04,0.08-0.07c0.07-0.04,0.16-0.11,0.22-0.17c0.05-0.04,0.07-0.05,0.12-0.09
			c0.07-0.05,0.06-0.03,0.07-0.11c0-0.11,0-0.04-0.04-0.1l-0.9-1.43c-0.01,0-0.02-0.02-0.02-0.02l-0.02-0.03
			c-0.1,0.07-0.86,1.27-0.99,1.47c-0.3,0.45-0.25,0.28-0.36,0.88C23.13,18.59,23.01,18.96,22.98,19.28"/>
		<path class="st2" d="M26.1,16.35c0.07,0.01,0.18,0.04,0.25,0.06c0.04,0.02,0.08,0.03,0.12,0.04c0.1,0.03,0.08-0.01,0.1,0.06
			c0.07-0.04,0.1-0.08,0.16-0.13c0.05-0.05,0.1-0.08,0.15-0.13c0.18-0.17,0.85-0.75,0.89-0.84c-0.04-0.28,0-0.62,0.02-0.87
			c-0.05-0.09-0.66-0.42-0.8-0.51c-0.15-0.09-0.29-0.17-0.41-0.25c-0.13-0.08-0.32-0.2-0.42-0.24l-0.11,0.65
			c-0.1,0.7-0.07,1.3,0.02,1.99C26.06,16.3,26.04,16.29,26.1,16.35"/>
		<path class="st2" d="M14.51,12.81c0.23,0.02,1.99,0.63,2.29,0.68l-0.65-1.54c-0.06-0.13-0.16-0.4-0.23-0.51h-1.41V12.81z"/>
		<path class="st2" d="M10.43,11.57c0.11-0.01,1.57,0.46,1.7,0.5l1.7,0.51v-1.14c-0.5-0.05-3.18,0.05-3.4-0.03V11.57z"/>
		<path class="st4" d="M26.12,13.55h0.03c0.11,0.04,0.29,0.16,0.42,0.24c0.12,0.08,0.26,0.16,0.41,0.25
			c0.14,0.09,0.75,0.42,0.8,0.51c0.07,0.01,0.08,0.03,0.15,0.07l0.43,0.26c-0.04,0.07-0.08,0.09-0.14,0.14l-0.27,0.26
			c-0.07,0.05-0.11,0.12-0.18,0.15c-0.04,0.09-0.71,0.67-0.89,0.84c-0.05,0.05-0.1,0.08-0.15,0.13c-0.06,0.05-0.09,0.1-0.16,0.13
			c-0.02,0.05-0.32,0.31-0.36,0.33l-0.69,0.62c-0.01,0.09,0,0.06-0.07,0.11c-0.05,0.04-0.07,0.04-0.12,0.09
			c-0.06,0.05-0.15,0.12-0.22,0.17c-0.03,0.06,0,0.04-0.08,0.07c-0.06,0.08-0.18,0.18-0.25,0.25l-0.23,0.2
			c-0.03,0.02-0.03,0.03-0.04,0.04l-0.82,0.74c-0.02,0.02-0.02,0.02-0.04,0.03l-0.02,0.02c-0.18,0.18-0.63,0.61-0.77,0.69
			l-0.01,0.03l-0.06,0.25c0.12-0.06,0.13-0.12,0.22-0.18l0.76-0.68c0.05-0.05,0.04-0.04,0.1-0.11c0.04-0.04,0.03-0.02,0.05-0.04
			l0.7-0.63c0.03-0.04,0.08-0.07,0.11-0.1c0.08-0.07,0.16-0.11,0.22-0.19l0.22-0.2c0.02-0.02,0.03-0.03,0.05-0.05l0.38-0.34
			c0.09-0.08,0.07-0.04,0.18-0.16l0.03-0.03c0.01-0.01,0.01-0.01,0.02-0.01c0.07-0.08,0.13-0.13,0.22-0.19l0.21-0.2
			c0.03-0.08,0.17-0.17,0.23-0.23c0.04-0.04,0.08-0.07,0.11-0.11c0.04-0.04,0.06-0.07,0.13-0.1l0.25-0.25
			c0.1-0.09,0.17-0.14,0.26-0.23l0.26-0.25c0.13-0.11,0.19-0.18,0.29-0.22c0.02-0.05,0.04-0.07,0.09-0.11l0.71-0.65
			c0-0.16-0.04-0.09-0.15-0.15c-0.09-0.05-0.04-0.04-0.21-0.12c-0.04-0.03-0.33-0.23-0.4-0.26c-0.08,0.01-0.11-0.05-0.21-0.11
			l-0.4-0.26c-0.19-0.09-0.92-0.56-1.01-0.57C26.14,13.47,26.13,13.48,26.12,13.55"/>
		<path class="st4" d="M19.73,15.29v-1.14l-0.02-0.04c-0.02-0.11,0.02-0.08-0.03-0.25c-0.03-0.08-0.02-0.2-0.04-0.29
			c-0.03-0.11-0.02-0.19-0.04-0.3l-0.04-0.31c0-0.04-0.03-0.12-0.03-0.14c-0.01-0.05,0-0.11-0.01-0.16c0-0.05-0.03-0.09-0.04-0.13
			l-0.04-0.45c0-0.13-0.04-0.16-0.04-0.31l-0.05-0.45c-0.04-0.21-0.05-0.4-0.07-0.59c0-0.04-0.03-0.11-0.04-0.15
			c-0.01-0.05,0-0.11,0-0.16c-0.01-0.06-0.02-0.08-0.04-0.14c-0.03-0.14,0.02-0.09-0.04-0.31c-0.03-0.09-0.03-0.2-0.04-0.29
			c-0.01-0.06-0.03-0.25-0.04-0.32l0.61,0.35l-0.04-0.27L19.3,9.23c-0.04-0.02-0.01-0.01-0.04-0.03c-0.14-0.07-0.17-0.18-0.35-0.18
			c0,0.4,0.03,0.2,0.04,0.39l0.11,0.77c0.05,0.28,0.07,0.75,0.13,0.99c0.02,0.07,0.01,0.11,0.02,0.2c0.01,0.04,0.03,0.15,0.04,0.18
			c0.01,0.09,0.01,0.14,0.02,0.21c0.03,0.13,0.04,0.26,0.05,0.4c0.01,0.13,0.04,0.25,0.05,0.38l0.33,2.56
			c0.01,0.05,0.01,0.06,0.02,0.1l0.01,0.04C19.73,15.3,19.71,15.26,19.73,15.29"/>
		<path class="st3" d="M23.26,13.85l-0.38-0.58c-0.04-0.04-0.04-0.1-0.08-0.14l-0.18-0.29c-0.04-0.05-0.06-0.11-0.11-0.15l0.19,2.19
			c0.05-0.03,0.25-0.41,0.29-0.5C23.05,14.26,23.24,13.97,23.26,13.85"/>
		<path class="st2" d="M26.72,16.57c0.2-0.04,1.01,0.33,1.24,0.33c-0.01-0.04-0.32-1.08-0.18-1.24v-0.04
			c-0.1,0.04-0.16,0.11-0.29,0.22l-0.26,0.25c-0.1,0.09-0.17,0.14-0.26,0.23L26.72,16.57z"/>
		<path class="st3" d="M19.74,9.45c0.06,0.04,0.75,0.18,0.86,0.18l-0.61-0.97c-0.04-0.06-0.05-0.09-0.11-0.14
			c-0.05-0.05-0.07-0.11-0.16-0.11C19.73,8.65,19.7,9.27,19.74,9.45"/>
		<path class="st4" d="M22.39,11.34l1.59,0.93c0.04,0.03,0.07,0.04,0.11,0.08c0.05-0.04,0.09-0.11,0.11-0.18l-0.23-0.12
			c-0.04-0.02-0.07-0.04-0.11-0.08c-0.05-0.04-0.07-0.04-0.12-0.06l-0.15-0.11c-0.05-0.03-0.03-0.01-0.07-0.03
			c-0.08-0.04-0.05-0.04-0.11-0.08l-0.57-0.33c-0.22-0.16-0.1-0.05-0.22-0.13c-0.07-0.04-0.09-0.11-0.26-0.13
			C22.37,11.18,22.37,11.27,22.39,11.34"/>
		<path class="st4" d="M20.47,21.07l0.11,0.76c0.01,0.07,0.02,0.18,0.04,0.26c0.14,0,0.11-0.02,0.18-0.1l0.11-0.1
			c0.13-0.11,0.04-0.06,0.23-0.21c0.03-0.03,0.02-0.02,0.04-0.04c0.04-0.04,0.04-0.04,0.08-0.07l0.58-0.54c0,0,0-0.01,0.01-0.01
			c-0.06-0.05-0.1-0.04-0.18-0.04c-0.06,0.08-0.7,0.62-0.83,0.75c-0.05,0.05-0.06,0.09-0.13,0.11c0-0.19-0.03-0.26-0.04-0.44
			c-0.01-0.19-0.04-0.06-0.04-0.43C20.54,20.97,20.49,21.01,20.47,21.07"/>
		<path class="st1" d="M26.2,16.85c0.04-0.02,0.34-0.27,0.36-0.33c-0.02-0.07,0-0.04-0.1-0.06c-0.04-0.02-0.08-0.03-0.12-0.04
			c-0.07-0.02-0.18-0.05-0.25-0.06C26.11,16.51,26.19,16.69,26.2,16.85"/>
	</g>
</g>
</svg>
