<?xml version="1.0" encoding="utf-8"?>
<!-- Generator: Adobe Illustrator 25.0.0, SVG Export Plug-In . SVG Version: 6.00 Build 0)  -->
<svg version="1.1" id="Layer_1" xmlns="http://www.w3.org/2000/svg" xmlns:xlink="http://www.w3.org/1999/xlink" x="0px" y="0px"
	 viewBox="0 0 4.19 4.19" style="enable-background:new 0 0 4.19 4.19;" xml:space="preserve">
<style type="text/css">
	.st0{fill:#494D56;}
	.st1{fill-rule:evenodd;clip-rule:evenodd;fill:#FFFFFF;}
</style>
<path class="st0" d="M4.14,2.09c0,1.13-0.92,2.04-2.04,2.04c-1.13,0-2.04-0.91-2.04-2.04c0-1.13,0.91-2.04,2.04-2.04
	C3.22,0.05,4.14,0.97,4.14,2.09z"/>
<g>
	<path class="st1" d="M3.31,1.8C3.17,1.24,2.68,0.85,2.09,0.84c-0.08,0-0.16,0.01-0.24,0.02C1.03,1.03,0.61,1.94,1.01,2.68
		C1.02,2.7,1.02,2.72,1.02,2.74C0.96,2.93,0.91,3.12,0.85,3.32C0.85,3.35,0.85,3.35,0.88,3.34c0.2-0.06,0.4-0.11,0.6-0.16
		c0.02,0,0.03,0,0.04,0C1.78,3.32,2.05,3.35,2.34,3.3C3.02,3.17,3.47,2.48,3.31,1.8z M2.27,3.1C2.21,3.11,2.15,3.12,2.13,3.12
		c-0.22,0-0.4-0.05-0.56-0.14C1.54,2.96,1.52,2.95,1.5,2.96C1.39,2.99,1.28,3.02,1.17,3.05c-0.02,0.01-0.03,0-0.02-0.02
		c0.03-0.1,0.06-0.21,0.09-0.31c0.01-0.03,0.01-0.05-0.01-0.07C1,2.27,1.01,1.82,1.26,1.48c0.26-0.35,0.62-0.5,1.05-0.4
		C2.74,1.17,3.01,1.44,3.1,1.86C3.24,2.44,2.85,3.01,2.27,3.1z"/>
	<path class="st1" d="M2.42,2.68c-0.04,0-0.09,0-0.13-0.02C2.01,2.58,1.79,2.4,1.62,2.17C1.55,2.08,1.49,1.98,1.47,1.87
		C1.45,1.74,1.49,1.63,1.59,1.54C1.62,1.51,1.71,1.5,1.75,1.52c0.01,0.01,0.02,0.02,0.03,0.03C1.81,1.64,1.85,1.72,1.89,1.8
		c0.01,0.02,0,0.04-0.01,0.05C1.86,1.9,1.83,1.93,1.81,1.96C1.78,1.98,1.78,2,1.8,2.03C1.9,2.2,2.04,2.32,2.22,2.39
		C2.25,2.4,2.27,2.4,2.29,2.38C2.32,2.34,2.35,2.3,2.38,2.26C2.4,2.24,2.42,2.23,2.45,2.24C2.51,2.27,2.57,2.3,2.63,2.33
		c0.02,0.01,0.03,0.01,0.04,0.02c0.06,0.03,0.06,0.04,0.05,0.1C2.72,2.58,2.62,2.64,2.5,2.67C2.47,2.68,2.45,2.68,2.42,2.68z"/>
</g>
</svg>
