<?xml version="1.0" encoding="utf-8"?>
<!-- Generator: Adobe Illustrator 25.0.0, SVG Export Plug-In . SVG Version: 6.00 Build 0)  -->
<svg version="1.1" id="Camada_1" xmlns="http://www.w3.org/2000/svg" xmlns:xlink="http://www.w3.org/1999/xlink" x="0px" y="0px"
	 viewBox="0 0 388.88 171.62" style="enable-background:new 0 0 388.88 171.62;" xml:space="preserve">
<style type="text/css">
	.st0{clip-path:url(#SVGID_2_);fill-rule:evenodd;clip-rule:evenodd;fill:#FFFFFF;}
	.st1{clip-path:url(#SVGID_2_);fill-rule:evenodd;clip-rule:evenodd;fill:#FEEF00;}
	.st2{clip-path:url(#SVGID_2_);fill-rule:evenodd;clip-rule:evenodd;fill:#E0D201;}
	.st3{clip-path:url(#SVGID_2_);fill-rule:evenodd;clip-rule:evenodd;fill:#FE0000;}
	.st4{clip-path:url(#SVGID_2_);fill-rule:evenodd;clip-rule:evenodd;fill:#BD0404;}
</style>
<g>
	<g>
		<defs>
			<rect id="SVGID_1_" x="-6.35" y="0" width="397.41" height="173.87"/>
		</defs>
		<clipPath id="SVGID_2_">
			<use xlink:href="#SVGID_1_"  style="overflow:visible;"/>
		</clipPath>
		<path class="st0" d="M236.36,17.59c-0.11,0.98,0.22,1.53,0.22,2.96c0.55,0.88,1.42,7.01,1.64,8.54c0.55,2.63,0.88,5.58,1.42,8.32
			c0.98,5.47,1.86,11.38,2.74,16.75l8.32,50.68c0.55,3.28,1.2,4.93,0.55,8.32c-1.1,5.25-8.32,37.77-8.54,40.39
			c2.3,0.55,5.47,1.09,7.44,1.75c1.75,0.22,3.5,0.77,5.15,1.09c1.2,0.22,4.38,0.77,5.25,1.2c1.1,0,1.53-0.11,2.3,0.55
			c2.74,0,7.44,1.64,9.19,1.75l2.74-12.81l0.77-3.07c-0.11-0.33-0.22-0.33,0.11-0.33c0-1.31,0.44-2.41,0.66-3.72
			c0.11-0.66,0.22-1.2,0.33-1.75c0.22-0.77,0.33-1.1,0.44-1.75c0.33-4.05,1.86-8.65,2.63-12.92c1.42-7.44,0.77-5.36,4.49-10.95
			c1.64-2.52,11.17-17.41,12.37-18.28l4.82-7.33c0.44-0.66,0.66-1.2,1.09-1.75l11.06-16.53c0.77-1.09,1.53-2.63,2.52-3.5
			c0.22-0.98,0.33-1.09,0.88-1.75l15.54-23.21l0.33-0.33c0.44-1.64,2.52-3.17,2.63-4.6l-24.19-5.15c-2.52-0.66-5.36-1.2-7.99-1.75
			l-6.9,12.15c-0.44,0.98-0.88,1.64-1.31,2.52c-0.55,0.88-0.88,1.53-1.42,2.41c-0.55,1.1-0.66,1.53-1.42,2.41
			c-0.22,0.98-0.66,1.86-1.31,2.3l-10.29,18.61c-0.33,1.53-2.63,5.15-3.39,6.57c-0.55,1.09-2.96,5.91-3.61,6.24l-2.41-27.26
			c0-1.09-0.33-2.63-0.33-3.83c-0.11-1.75-0.44-2.85-0.55-4.16c-0.22-2.96-0.44-5.69-0.55-8.76c-0.33-0.88-0.33-1.97-0.44-3.07
			c0.11-1.09-0.22-2.74-0.33-4.38c0-1.09-0.22-3.72-0.44-4.71c-0.88-5.58,0.88-4.27-4.6-5.36c-1.2-0.33-2.74-0.77-4.05-0.88
			l-12.48-2.74c-1.42-0.11-9.96-1.86-10.73-2.3c-0.11,0-0.44-0.11-0.44-0.11c-0.55,0-0.11-0.11-0.44,0.11L236.36,17.59z"/>
		<path class="st1" d="M50.92,38.94v65.9c0,8.87,1.75,15.65,5.91,20.36l0.44,0.33c3.83,4.27,9.2,6.46,14.78,7.44
			c0.98,0.11,1.53,0.44,2.85,0.44c7.12,0,10.62,0.55,17.08-0.88c5.58-1.31,10.07-4.05,13.57-8.32c3.39-4.16,5.15-11.6,5.15-17.08
			v-68.2c0-0.55-0.22-0.77-0.77-0.77H89.78v64.37c0,9.85-0.88,13.35-9.74,13.35c-8.65,0-7.99-6.9-7.99-13.57V42.77
			c0-0.88,0-1.64,0-2.52c0-1.1,0.22-2.08-0.77-2.08H51.69C51.14,38.17,50.92,38.39,50.92,38.94"/>
		<path class="st1" d="M171.66,38.83h17.51c0.88,1.31,2.08,4.71,2.85,6.35l8.1,19.16c-3.72-0.55-25.62-8.21-28.46-8.43v75.42
			c0.22,1.2,0.66,0.77,3.61,0.77l15.43,0.11c1.31,0,1.31,0.11,1.53-0.88v-26.71c0-4.16,0.55-14.45-0.22-17.51
			c0.88,0.66,4.71,9.96,5.15,11.06l15.22,33.93h13.9c2.63,0.11,2.85,0.66,2.85-1.97c-0.11-6.35,0-12.81,0-19.05
			c0-12.7,0-25.29,0-37.88c-1.2,0-8.32-2.41-10.07-2.96c-1.53-0.44-3.28-1.09-4.82-1.53c-1.75-0.44-3.5-1.2-5.47-1.31v15.87
			l-19.38-45.1h-17.51L171.66,38.83z"/>
		<path class="st1" d="M120.98,38.61c2.74,0.99,36.02-0.33,42.25,0.33v14.12l-21.13-6.35c-1.64-0.55-19.81-6.35-21.13-6.24
			c0,29.77-0.22,60.54-0.11,90.2c0.11,2.19,0.44,1.42,6.79,1.42h32.95c3.72,0.11,3.07,0.66,3.07-7.12c0-13.46,1.42-11.38-5.15-11.38
			h-16.75V94c0.33-1.2,0.98-0.77,4.16-0.77h15c2.63,0.11,1.75-0.66,1.75-7.99V77.8c0-1.31,0.11-1.42-0.98-1.53h-19.92V57.66
			c0-1.86,0.33-1.53,2.3-1.53l18.83,0.11c1.2-0.33,0.77-1.64,0.77-3.18c0-3.94,0.44-11.71-0.22-14.89h-40.17
			C121.97,38.17,121.53,37.95,120.98,38.61"/>
		<path class="st2" d="M332.8,39.92c0,0.44,0.11,0.33-0.33,0.33l-15.54,23.21c1.2,0.11,10.18,6.02,12.59,7.12l5.03,3.18
			c1.2,0.66,1.64,1.42,2.63,1.31c-0.88-1.2,1.75-9.41,2.41-10.84c0.44-0.88,0.66-1.31,1.2-2.19c1.31-2.19,2.63-4.27,5.03-5.47
			c7.77-3.94,13.9,2.74,16.2,9.63c2.08,6.46,2.52,11.49,2.52,18.28c0,8.43-0.44,13.46-2.74,21.46c-0.55,1.64-1.97,4.71-3.07,6.02
			c-0.44,0.66-0.44,0.22-0.66,0.98c4.71,1.2,10.07,3.07,14.89,4.49c1.42,0.44,3.5,1.2,5.04,1.53l-0.11,0.55
			c1.42-0.88,2.95-4.49,3.61-5.91c3.07-6.9,4.71-16.09,5.15-24.85v-1.31v-6.68v-1.31l-0.77-7.01c-0.55-2.63-0.88-5.36-1.53-7.77
			c-1.75-7.77-4.6-12.7-9.41-18.94c-1.97-2.63-7.88-6.79-10.95-7.88c-7.22-2.63-8.43-2.19-16.53-2.3c-2.74,0-5.8,0.77-7.99,1.53
			C336.52,37.95,333.46,39.81,332.8,39.92"/>
		<path class="st1" d="M0.68,132.09h42.47c0.66,0,0.77-0.11,0.77-0.77v-17.73H21.37V38.94c0-0.55-0.22-0.77-0.88-0.77H0.68V132.09z"
			/>
		<path class="st3" d="M236.58,72.65v14.12v78.05c1.75,0,0.88,0,1.31-0.44c0-0.11,0.11-0.11,0.11-0.22l0.33-0.44
			c0.33-0.22,0.22-0.11,0.55-0.44l6.9-4.6c0.33-0.77,0.88-1.2,1.86-1.31c0.66-0.99,1.86-1.1,2.52-2.08
			c-1.97-0.66-5.14-1.2-7.44-1.75c0.22-2.63,7.44-35.14,8.54-40.39c0.66-3.39,0-5.04-0.55-8.32l-8.32-50.68
			c-0.88-5.36-1.75-11.28-2.74-16.75c-0.55-2.74-0.88-5.69-1.42-8.32c-0.22-1.53-1.1-7.66-1.64-8.54V72.65z"/>
		<path class="st1" d="M323.61,102.76c-0.88,0.33-1.09,0.66-1.64,1.2c-0.44,0.55-0.98,0.99-1.42,1.42
			c-0.77,0.77-2.52,1.86-2.85,2.85c0.66,1.31,1.1,2.96,1.64,4.38c4.16,9.74,12.15,18.39,23.32,20.36c4.82,0.88,6.46,0.44,11.82,0.44
			c5.03,0,10.4-2.08,14.23-4.49c0.77-0.55,1.2-0.77,1.86-1.31c0.77-0.55,0.98-0.88,1.64-1.42c1.53-1.2,5.47-5.25,5.69-6.68
			l0.11-0.55c-1.53-0.33-3.61-1.09-5.04-1.53c-4.82-1.42-10.18-3.28-14.89-4.49c-2.19,2.19-4.6,4.27-8.65,3.61
			c-9.74-1.53-12.7-16.75-12.7-25.07c-1.64,1.97,2.19,15,2.3,15.43C336.19,106.81,326.12,102.32,323.61,102.76"/>
		<path class="st2" d="M208.77,67.4c1.97,0.11,3.72,0.88,5.47,1.31c1.53,0.44,3.28,1.09,4.82,1.53c1.75,0.55,8.87,2.96,10.07,2.96
			V41.57c0-4.05,1.42-3.39-7.23-3.39c-3.5,0-7.12,0-10.62,0c-3.28-0.11-2.52-1.1-2.52,7.99C208.77,53.17,208.77,60.28,208.77,67.4"
			/>
		<path class="st3" d="M277.08,136.47c1.31-0.44,5.03-3.28,6.35-4.27l3.06-2.08c0.44-0.33,0.44-0.22,0.88-0.55l8.54-6.02
			c1.09-0.66,5.69-4.05,6.57-4.27c0.44-0.66,0.22-0.55,0.99-0.88c0.88-0.55,1.97-1.42,2.74-2.08c0.66-0.55,0.88-0.66,1.53-1.1
			c0.88-0.66,0.77-0.33,0.88-1.42c0-1.31,0-0.55-0.44-1.2L297,94.88c-0.11,0-0.22-0.22-0.22-0.22l-0.22-0.33
			c-1.2,0.88-10.73,15.76-12.37,18.28c-3.72,5.58-3.07,3.5-4.49,10.95C278.94,127.83,277.41,132.42,277.08,136.47"/>
		<path class="st2" d="M315.83,100.02c0.88,0.11,2.19,0.55,3.07,0.77c0.55,0.22,0.98,0.33,1.53,0.55c1.2,0.33,0.98-0.11,1.2,0.77
			c0.88-0.44,1.2-0.98,1.97-1.64c0.66-0.66,1.2-0.99,1.86-1.64c2.19-2.08,10.62-9.31,11.06-10.4c-0.55-3.5,0-7.77,0.22-10.84
			c-0.66-1.1-8.21-5.25-9.96-6.35c-1.86-1.09-3.61-2.08-5.15-3.07c-1.64-0.98-3.94-2.52-5.25-2.96l-1.42,8.1
			c-1.2,8.65-0.88,16.2,0.22,24.74C315.39,99.36,315.07,99.25,315.83,100.02"/>
		<path class="st2" d="M171.66,55.91c2.85,0.22,24.74,7.88,28.46,8.43l-8.1-19.16c-0.77-1.64-1.97-5.04-2.85-6.35h-17.51V55.91z"/>
		<path class="st2" d="M120.98,40.47c1.31-0.11,19.49,5.69,21.13,6.24l21.13,6.35V38.94c-6.24-0.66-39.52,0.66-42.25-0.33V40.47z"/>
		<path class="st4" d="M316.05,65.21h0.33c1.31,0.44,3.61,1.97,5.25,2.96c1.53,0.99,3.29,1.97,5.15,3.07
			c1.75,1.1,9.31,5.25,9.96,6.35c0.88,0.11,0.99,0.33,1.86,0.88l5.36,3.17c-0.55,0.88-0.98,1.09-1.75,1.75l-3.39,3.17
			c-0.88,0.66-1.42,1.53-2.3,1.86c-0.44,1.09-8.87,8.32-11.06,10.4c-0.66,0.66-1.2,0.98-1.86,1.64c-0.77,0.66-1.09,1.2-1.97,1.64
			c-0.22,0.66-3.94,3.83-4.49,4.05l-8.54,7.66c-0.11,1.1,0,0.77-0.88,1.42c-0.66,0.44-0.88,0.55-1.53,1.1
			c-0.77,0.66-1.86,1.53-2.74,2.08c-0.33,0.77,0,0.55-0.99,0.88c-0.77,0.98-2.19,2.19-3.07,3.07l-2.85,2.52
			c-0.33,0.22-0.33,0.33-0.55,0.55l-10.18,9.2c-0.22,0.22-0.22,0.22-0.44,0.33l-0.22,0.22c-2.3,2.19-7.88,7.55-9.52,8.54l-0.11,0.33
			l-0.77,3.07c1.53-0.77,1.64-1.53,2.74-2.3l9.41-8.43c0.66-0.66,0.55-0.55,1.2-1.31c0.55-0.44,0.33-0.22,0.66-0.55l8.65-7.88
			c0.33-0.44,0.98-0.88,1.31-1.2c0.99-0.88,1.97-1.42,2.74-2.41l2.74-2.52c0.22-0.22,0.33-0.33,0.66-0.66l4.71-4.27
			c1.09-0.99,0.88-0.44,2.19-1.97l0.33-0.33c0.11-0.11,0.11-0.11,0.22-0.11c0.88-0.99,1.64-1.64,2.74-2.41l2.63-2.52
			c0.33-0.98,2.08-2.08,2.85-2.85c0.44-0.44,0.98-0.88,1.42-1.42c0.55-0.55,0.77-0.88,1.64-1.2l3.06-3.07
			c1.2-1.1,2.08-1.75,3.28-2.85l3.18-3.07c1.64-1.31,2.41-2.3,3.61-2.74c0.22-0.66,0.55-0.88,1.1-1.31l8.87-8.1
			c0-1.97-0.55-1.09-1.86-1.86c-1.09-0.66-0.55-0.55-2.63-1.53c-0.55-0.33-4.05-2.85-5.04-3.18c-0.98,0.11-1.42-0.66-2.63-1.31
			l-5.03-3.18c-2.41-1.09-11.38-7.01-12.59-7.12C316.38,64.12,316.27,64.23,316.05,65.21"/>
		<path class="st4" d="M236.58,86.78V72.65l-0.22-0.55c-0.22-1.31,0.22-0.98-0.33-3.07c-0.33-0.98-0.22-2.52-0.44-3.61
			c-0.33-1.31-0.22-2.41-0.44-3.72l-0.55-3.83c0-0.55-0.33-1.53-0.33-1.75c-0.11-0.66,0-1.31-0.11-1.97c0-0.66-0.33-1.1-0.44-1.64
			l-0.55-5.58c0-1.64-0.44-1.97-0.55-3.83l-0.66-5.58c-0.55-2.63-0.66-4.93-0.88-7.33c0-0.55-0.33-1.31-0.44-1.86
			c-0.11-0.66,0-1.31,0-1.97c-0.11-0.77-0.22-0.98-0.44-1.75c-0.33-1.75,0.22-1.1-0.44-3.83c-0.33-1.1-0.33-2.52-0.55-3.61
			c-0.11-0.77-0.33-3.07-0.44-3.94l7.55,4.38l-0.55-3.39l-4.6-2.85c-0.44-0.22-0.11-0.11-0.55-0.33c-1.75-0.88-2.08-2.19-4.38-2.19
			c0,4.93,0.33,2.52,0.44,4.82l1.31,9.63c0.66,3.5,0.88,9.3,1.64,12.26c0.22,0.88,0.11,1.42,0.22,2.52
			c0.11,0.44,0.33,1.86,0.44,2.19c0.11,1.09,0.11,1.75,0.22,2.63c0.33,1.64,0.44,3.17,0.66,5.04c0.11,1.64,0.55,3.07,0.66,4.71
			l4.16,31.86c0.11,0.66,0.11,0.77,0.22,1.2l0.11,0.55C236.58,86.89,236.36,86.45,236.58,86.78"/>
		<path class="st3" d="M280.58,68.82l-4.71-7.22c-0.44-0.55-0.55-1.2-0.98-1.75l-2.3-3.61c-0.55-0.66-0.77-1.42-1.42-1.86
			l2.41,27.26c0.66-0.33,3.07-5.15,3.61-6.24C277.96,73.97,280.26,70.36,280.58,68.82"/>
		<path class="st2" d="M323.61,102.76c2.52-0.44,12.59,4.05,15.43,4.16c-0.11-0.44-3.94-13.46-2.3-15.43v-0.44
			c-1.2,0.44-1.97,1.42-3.61,2.74l-3.18,3.07c-1.2,1.09-2.08,1.75-3.28,2.85L323.61,102.76z"/>
		<path class="st3" d="M236.69,14.2c0.77,0.44,9.3,2.19,10.73,2.3l-7.55-12.04c-0.44-0.77-0.66-1.09-1.31-1.75
			c-0.66-0.66-0.88-1.31-1.97-1.31C236.58,4.24,236.25,11.9,236.69,14.2"/>
		<path class="st4" d="M269.75,37.62l19.81,11.6c0.55,0.33,0.88,0.44,1.31,0.99c0.66-0.44,1.09-1.31,1.31-2.3l-2.85-1.53
			c-0.44-0.22-0.88-0.55-1.31-0.99c-0.66-0.44-0.88-0.44-1.53-0.77l-1.86-1.31c-0.66-0.33-0.33-0.11-0.88-0.33
			c-0.99-0.44-0.66-0.44-1.42-0.98l-7.12-4.16c-2.74-1.97-1.2-0.66-2.74-1.64c-0.88-0.55-1.1-1.31-3.17-1.64
			C269.42,35.65,269.42,36.75,269.75,37.62"/>
		<path class="st4" d="M245.77,158.69l1.42,9.42c0.11,0.88,0.22,2.19,0.44,3.17c1.75,0,1.31-0.22,2.19-1.2l1.31-1.2
			c1.64-1.31,0.44-0.77,2.85-2.63c0.33-0.33,0.22-0.22,0.55-0.44c0.44-0.44,0.44-0.44,0.98-0.88l7.23-6.68c0,0,0-0.11,0.11-0.11
			c-0.77-0.66-1.2-0.55-2.3-0.55c-0.77,0.98-8.76,7.77-10.29,9.3c-0.66,0.66-0.77,1.1-1.64,1.31c0-2.41-0.33-3.17-0.55-5.47
			c-0.11-2.41-0.44-0.77-0.44-5.36C246.65,157.49,246.1,157.93,245.77,158.69"/>
		<path class="st1" d="M317.15,106.15c0.55-0.22,4.27-3.39,4.49-4.05c-0.22-0.88,0-0.44-1.2-0.77c-0.55-0.22-0.98-0.33-1.53-0.55
			c-0.88-0.22-2.19-0.66-3.07-0.77C315.94,101.99,317.04,104.18,317.15,106.15"/>
	</g>
</g>
</svg>
