<?xml version="1.0" encoding="utf-8"?>
<!-- Generator: Adobe Illustrator 25.0.0, SVG Export Plug-In . SVG Version: 6.00 Build 0)  -->
<svg version="1.1" id="Layer_1" xmlns="http://www.w3.org/2000/svg" xmlns:xlink="http://www.w3.org/1999/xlink" x="0px" y="0px"
	 viewBox="0 0 4.19 4.19" style="enable-background:new 0 0 4.19 4.19;" xml:space="preserve">
<style type="text/css">
	.st0{fill:#494D56;}
	.st1{fill:#FFFFFF;}
</style>
<path class="st0" d="M4.15,2.09c0,1.08-0.83,1.96-1.88,2.05C2.21,4.15,2.16,4.15,2.1,4.15c-0.15,0-0.3-0.02-0.45-0.05
	C0.73,3.89,0.04,3.07,0.04,2.09c0-1.13,0.92-2.05,2.06-2.05C3.23,0.04,4.15,0.96,4.15,2.09z"/>
<g>
	<path class="st1" d="M2.33,1.66C2.36,1.63,2.43,1.6,2.52,1.6C2.6,1.6,2.7,1.61,2.8,1.64l0.08-0.43C2.71,1.15,2.54,1.13,2.37,1.13
		c-0.18,0-0.31,0.03-0.42,0.09C1.83,1.29,1.76,1.36,1.72,1.46C1.67,1.55,1.65,1.7,1.65,1.89v0.17H1.31v0.49h0.34V4.1
		C1.8,4.13,1.94,4.15,2.1,4.15c0.06,0,0.12,0,0.17-0.01V2.55h0.45V2.06H2.27V1.9C2.27,1.78,2.29,1.7,2.33,1.66z"/>
</g>
</svg>
