<?xml version="1.0" encoding="utf-8"?>
<!-- Generator: Adobe Illustrator 25.0.0, SVG Export Plug-In . SVG Version: 6.00 Build 0)  -->
<svg version="1.1" id="Layer_1" xmlns="http://www.w3.org/2000/svg" xmlns:xlink="http://www.w3.org/1999/xlink" x="0px" y="0px"
	 viewBox="0 0 4.19 4.19" style="enable-background:new 0 0 4.19 4.19;" xml:space="preserve">
<style type="text/css">
	.st0{fill:#494D56;}
	.st1{fill-rule:evenodd;clip-rule:evenodd;fill:#FFFFFF;}
</style>
<path class="st0" d="M4.1,2.09C4.1,3.2,3.2,4.1,2.09,4.1c-1.11,0-2.01-0.9-2.01-2.01s0.9-2.01,2.01-2.01C3.2,0.09,4.1,0.99,4.1,2.09
	z"/>
<g>
	<path class="st1" d="M2.89,1.01c-0.53,0-1.07,0-1.6,0c-0.19,0-0.29,0.1-0.29,0.29c0,0.26,0,0.53,0,0.79c0,0.26,0,0.53,0,0.8
		c0,0.18,0.1,0.28,0.28,0.28c0.54,0,1.07,0,1.61,0c0.19,0,0.29-0.1,0.29-0.29c0-0.53,0-1.06,0-1.6C3.18,1.11,3.08,1.01,2.89,1.01z
		 M2.72,1.26c0.22,0,0.22,0,0.22,0.22c0,0.21,0,0.21-0.21,0.21c-0.21,0-0.21,0-0.21-0.21C2.51,1.26,2.51,1.26,2.72,1.26z M2.1,1.67
		c0.23,0,0.42,0.2,0.42,0.42c0,0.23-0.19,0.42-0.42,0.42c-0.23-0.01-0.42-0.2-0.42-0.42C1.68,1.86,1.87,1.67,2.1,1.67z M2.93,2.8
		c0,0.1-0.03,0.13-0.13,0.13c-0.24,0-0.47,0-0.71,0c-0.23,0-0.47,0-0.71,0c-0.1,0-0.13-0.03-0.13-0.13c0-0.26,0-0.53,0-0.79
		c0-0.07,0.02-0.09,0.09-0.09c0.1,0.01,0.1,0,0.09,0.1C1.4,2.36,1.63,2.68,1.96,2.75C2.3,2.81,2.64,2.61,2.73,2.28
		c0.03-0.1,0.04-0.21,0.02-0.31c-0.01-0.04,0-0.04,0.04-0.04c0.15-0.01,0.15-0.01,0.15,0.14C2.93,2.31,2.93,2.56,2.93,2.8z"/>
</g>
</svg>
